<svg width="64" height="64" viewBox="0 0 64 64" fill="none" xmlns="http://www.w3.org/2000/svg">
<rect width="64" height="64" fill="#1E1E1E"/>
<rect width="64" height="64" fill="#0F0F0F"/>
<path d="M51.5631 36.96V35.568L56.5231 33.136C56.7258 33.04 56.9125 32.96 57.0831 32.896C57.2645 32.8213 57.3978 32.7733 57.4831 32.752C57.3871 32.7307 57.2485 32.6827 57.0671 32.608C56.8858 32.5333 56.7045 32.4533 56.5231 32.368L51.5631 29.92V28.48L58.4431 31.92V33.52L51.5631 36.96Z" fill="#DF6012"/>
<path d="M11.4431 36.96L4.56313 33.52V31.92L11.4431 28.48V29.872L6.48313 32.304C6.28046 32.4 6.08846 32.4853 5.90713 32.56C5.73646 32.624 5.60846 32.6667 5.52313 32.688C5.61913 32.7093 5.75779 32.7573 5.93913 32.832C6.12046 32.896 6.30179 32.976 6.48313 33.072L11.4431 35.52V36.96Z" fill="#DF6012"/>
<path d="M22.5725 44.32C21.1218 44.32 19.8525 44.0427 18.7645 43.488C17.6978 42.9333 16.8658 42.1547 16.2685 41.152C15.6712 40.1493 15.3725 38.9653 15.3725 37.6H17.4525C17.4525 39.0507 17.9218 40.224 18.8605 41.12C19.7992 41.9947 21.0365 42.432 22.5725 42.432C24.0018 42.432 25.1645 42.0267 26.0605 41.216C26.9565 40.384 27.4045 39.3067 27.4045 37.984C27.4045 36.8747 27.1058 35.904 26.5085 35.072C25.9112 34.24 25.0792 33.664 24.0125 33.344L20.6525 32.352C19.2018 31.9253 18.0605 31.168 17.2285 30.08C16.3965 28.992 15.9805 27.7333 15.9805 26.304C15.9805 25.1093 16.2472 24.064 16.7805 23.168C17.3352 22.272 18.0925 21.5787 19.0525 21.088C20.0338 20.576 21.1645 20.32 22.4445 20.32C23.7245 20.32 24.8552 20.5867 25.8365 21.12C26.8178 21.632 27.5858 22.3573 28.1405 23.296C28.6952 24.2347 28.9725 25.312 28.9725 26.528H26.8925C26.8925 25.248 26.4765 24.2027 25.6445 23.392C24.8125 22.5813 23.7458 22.176 22.4445 22.176C21.1432 22.176 20.0872 22.5493 19.2765 23.296C18.4658 24.0427 18.0605 25.0027 18.0605 26.176C18.0605 27.1787 18.3272 28.0533 18.8605 28.8C19.4152 29.5467 20.1832 30.0693 21.1645 30.368L24.5565 31.392C26.0712 31.84 27.2658 32.6507 28.1405 33.824C29.0152 34.9973 29.4525 36.3627 29.4525 37.92C29.4525 39.2 29.1645 40.32 28.5885 41.28C28.0125 42.24 27.2018 42.9867 26.1565 43.52C25.1325 44.0533 23.9378 44.32 22.5725 44.32ZM41.888 44.32C39.8613 44.32 38.2507 43.7333 37.056 42.56C35.8613 41.3867 35.264 39.7973 35.264 37.792V26.848C35.264 24.8427 35.8613 23.2533 37.056 22.08C38.2507 20.9067 39.8613 20.32 41.888 20.32C43.9147 20.32 45.5253 20.928 46.72 22.144C47.936 23.36 48.544 24.992 48.544 27.04H46.432C46.432 25.5253 46.0267 24.3413 45.216 23.488C44.4053 22.6347 43.296 22.208 41.888 22.208C40.5013 22.208 39.4027 22.624 38.592 23.456C37.7813 24.2667 37.376 25.3973 37.376 26.848V37.792C37.376 39.2427 37.7707 40.384 38.56 41.216C39.3707 42.0267 40.48 42.432 41.888 42.432C43.3173 42.432 44.4267 42.0053 45.216 41.152C46.0267 40.2987 46.432 39.1147 46.432 37.6H48.544C48.544 39.648 47.936 41.28 46.72 42.496C45.5253 43.712 43.9147 44.32 41.888 44.32Z" fill="#D9D9D9"/>
</svg>
